<mxfile host="Electron" agent="Mozilla/5.0 (X11; Linux x86_64) AppleWebKit/537.36 (KHTML, like Gecko) draw.io/27.0.9 Chrome/134.0.6998.205 Electron/35.4.0 Safari/537.36" version="27.0.9">
  <diagram name="Page-1" id="CzuugHtxm8g0S0mhNf8t">
    <mxGraphModel dx="706" dy="632" grid="1" gridSize="10" guides="1" tooltips="1" connect="1" arrows="1" fold="1" page="1" pageScale="1" pageWidth="850" pageHeight="1100" math="0" shadow="0">
      <root>
        <mxCell id="0" />
        <mxCell id="1" parent="0" />
        <mxCell id="GsOB0xQlESEeQbMK0Fa_-1" value="repo-hello-world" style="rounded=1;whiteSpace=wrap;html=1;" parent="1" vertex="1">
          <mxGeometry x="190" y="310" width="120" height="140" as="geometry" />
        </mxCell>
        <mxCell id="GsOB0xQlESEeQbMK0Fa_-2" value="" style="endArrow=none;dashed=1;html=1;rounded=0;" parent="1" edge="1">
          <mxGeometry width="50" height="50" relative="1" as="geometry">
            <mxPoint x="380" y="480" as="sourcePoint" />
            <mxPoint x="380" y="40" as="targetPoint" />
          </mxGeometry>
        </mxCell>
        <mxCell id="GsOB0xQlESEeQbMK0Fa_-4" value="repo-hello-world" style="rounded=1;whiteSpace=wrap;html=1;" parent="1" vertex="1">
          <mxGeometry x="450" y="100" width="120" height="140" as="geometry" />
        </mxCell>
        <mxCell id="GsOB0xQlESEeQbMK0Fa_-5" value="Local" style="text;html=1;align=center;verticalAlign=middle;whiteSpace=wrap;rounded=0;" parent="1" vertex="1">
          <mxGeometry x="230" y="60" width="60" height="30" as="geometry" />
        </mxCell>
        <mxCell id="GsOB0xQlESEeQbMK0Fa_-6" value="GitHub" style="text;html=1;align=center;verticalAlign=middle;whiteSpace=wrap;rounded=0;" parent="1" vertex="1">
          <mxGeometry x="480" y="60" width="60" height="30" as="geometry" />
        </mxCell>
        <mxCell id="GsOB0xQlESEeQbMK0Fa_-8" value="" style="dashed=0;outlineConnect=0;html=1;align=center;labelPosition=center;verticalLabelPosition=bottom;verticalAlign=top;shape=mxgraph.weblogos.github" parent="1" vertex="1">
          <mxGeometry x="485" y="10" width="50" height="50" as="geometry" />
        </mxCell>
        <mxCell id="GsOB0xQlESEeQbMK0Fa_-9" value="" style="image;html=1;image=img/lib/clip_art/computers/Laptop_128x128.png" parent="1" vertex="1">
          <mxGeometry x="230" width="60" height="70" as="geometry" />
        </mxCell>
        <mxCell id="GsOB0xQlESEeQbMK0Fa_-10" value="Clone" style="text;html=1;align=center;verticalAlign=middle;whiteSpace=wrap;rounded=0;" parent="1" vertex="1">
          <mxGeometry x="380" y="300" width="60" height="30" as="geometry" />
        </mxCell>
        <mxCell id="GsOB0xQlESEeQbMK0Fa_-11" value="repo-hello-world" style="rounded=1;whiteSpace=wrap;html=1;" parent="1" vertex="1">
          <mxGeometry x="450" y="310" width="120" height="140" as="geometry" />
        </mxCell>
        <mxCell id="GsOB0xQlESEeQbMK0Fa_-12" value="" style="shape=image;html=1;verticalAlign=top;verticalLabelPosition=bottom;labelBackgroundColor=#ffffff;imageAspect=0;aspect=fixed;image=https://cdn4.iconfinder.com/data/icons/core-ui-outlined/32/outlined_link_broken-128.png;rotation=-45;" parent="1" vertex="1">
          <mxGeometry x="546.27" y="219" width="110" height="110" as="geometry" />
        </mxCell>
        <mxCell id="GsOB0xQlESEeQbMK0Fa_-15" value="" style="endArrow=classic;html=1;rounded=0;entryX=1.008;entryY=0.136;entryDx=0;entryDy=0;entryPerimeter=0;exitX=0;exitY=0.136;exitDx=0;exitDy=0;exitPerimeter=0;" parent="1" source="GsOB0xQlESEeQbMK0Fa_-11" target="GsOB0xQlESEeQbMK0Fa_-1" edge="1">
          <mxGeometry width="50" height="50" relative="1" as="geometry">
            <mxPoint x="450" y="119" as="sourcePoint" />
            <mxPoint x="400" y="160" as="targetPoint" />
          </mxGeometry>
        </mxCell>
        <mxCell id="GsOB0xQlESEeQbMK0Fa_-16" value="" style="endArrow=classic;html=1;rounded=0;entryX=0.5;entryY=0;entryDx=0;entryDy=0;exitX=0.5;exitY=1;exitDx=0;exitDy=0;" parent="1" source="GsOB0xQlESEeQbMK0Fa_-4" target="GsOB0xQlESEeQbMK0Fa_-11" edge="1">
          <mxGeometry width="50" height="50" relative="1" as="geometry">
            <mxPoint x="350" y="320" as="sourcePoint" />
            <mxPoint x="400" y="270" as="targetPoint" />
          </mxGeometry>
        </mxCell>
        <mxCell id="GsOB0xQlESEeQbMK0Fa_-17" value="Fork" style="text;html=1;align=center;verticalAlign=middle;whiteSpace=wrap;rounded=0;" parent="1" vertex="1">
          <mxGeometry x="459" y="259" width="60" height="30" as="geometry" />
        </mxCell>
        <mxCell id="GsOB0xQlESEeQbMK0Fa_-3" value="" style="html=1;verticalLabelPosition=bottom;align=center;labelBackgroundColor=#ffffff;verticalAlign=top;strokeWidth=2;strokeColor=#0080F0;shadow=0;dashed=0;shape=mxgraph.ios7.icons.link;rotation=45;" parent="1" vertex="1">
          <mxGeometry x="330" y="300" width="110" height="160" as="geometry" />
        </mxCell>
        <mxCell id="1Ji_L1QJkVJqTBFYs2DL-1" value="You" style="text;html=1;align=center;verticalAlign=middle;whiteSpace=wrap;rounded=0;" vertex="1" parent="1">
          <mxGeometry x="104" y="365" width="60" height="30" as="geometry" />
        </mxCell>
        <mxCell id="1Ji_L1QJkVJqTBFYs2DL-2" value="Other user" style="text;html=1;align=center;verticalAlign=middle;whiteSpace=wrap;rounded=0;" vertex="1" parent="1">
          <mxGeometry x="119" y="170" width="60" height="30" as="geometry" />
        </mxCell>
      </root>
    </mxGraphModel>
  </diagram>
</mxfile>
